<svg width="24" height="24" xmlns="http://www.w3.org/2000/svg">

 <g>
  <title>Offline Icon</title>
  <path fill="#5965e0" id="svg_1" d="m1.293,8.395l1.414,1.414c0.504,-0.504 1.052,-0.95 1.622,-1.359l-1.429,-1.429c-0.56,0.422 -1.104,0.87 -1.607,1.374zm5.181,-3.335l-2.767,-2.767l-1.414,1.414l18,18l1.414,-1.414l-5.012,-5.012l0.976,-0.975c-1.145,-1.145 -2.585,-1.858 -4.099,-2.148l-2.278,-2.278c2.789,-0.191 5.649,0.748 7.729,2.827l1.414,-1.414c-2.898,-2.899 -7.061,-3.936 -10.888,-3.158l-1.525,-1.525c1.267,-0.394 2.601,-0.61 3.976,-0.61c3.537,0 6.837,1.353 9.293,3.809l1.414,-1.414c-2.833,-2.834 -6.636,-4.395 -10.707,-4.395c-1.934,0.001 -3.791,0.384 -5.526,1.06zm-2.911,6.233l1.414,1.414c0.622,-0.622 1.319,-1.132 2.058,-1.551l-1.459,-1.459c-0.717,0.451 -1.395,0.979 -2.013,1.596zm2.766,3.014l1.414,1.414c0.692,-0.692 1.535,-1.151 2.429,-1.428l-1.557,-1.557c-0.833,0.379 -1.612,0.897 -2.286,1.571zm7.66,3.803l-2.1,-2.1c-1.051,0.059 -1.889,0.923 -1.889,1.99c-0.001,1.104 0.895,2 2,2c1.066,0 1.931,-0.838 1.989,-1.89z"/>
 </g>
</svg>